<?xml version="1.0" encoding="UTF-8"?>
<svg version="1.1" xmlns="http://www.w3.org/2000/svg" width="297" height="375" viewBox="0 0 297 375" preserveAspectRatio="xMidYMid meet">
<path d="M0 0 C98.01 0 196.02 0 297 0 C297 14.19 297 28.38 297 43 C289.125 44.125 289.125 44.125 285.99243164 44.11352539 C284.94213524 44.11341209 284.94213524 44.11341209 283.87062073 44.11329651 C282.77644081 44.10555458 282.77644081 44.10555458 281.66015625 44.09765625 C280.89319931 44.0962413 280.12624237 44.09482635 279.33604431 44.09336853 C276.9114881 44.08781766 274.48702781 44.07527463 272.0625 44.0625 C270.40820447 44.05747864 268.75390747 44.05291685 267.09960938 44.04882812 C263.06636988 44.03786438 259.03320114 44.02063424 255 44 C254.67 44.66 254.34 45.32 254 46 C254.67804688 46.46148437 255.35609375 46.92296875 256.0546875 47.3984375 C278.20253137 62.92033362 290.85810622 83.68235013 296 110 C301.34566514 142.8936595 295.41708347 178.73490704 275.82421875 206.03125 C272.48419244 210.3084965 268.93926826 214.2627455 265 218 C264.56042969 218.495 264.12085938 218.99 263.66796875 219.5 C251.24165014 233.09030288 232.84484869 241.1452268 215.375 245.875 C214.6727832 246.06618408 213.97056641 246.25736816 213.24707031 246.4543457 C200.40670721 249.64993087 187.27059408 250.31583745 174.09765625 250.30078125 C172.63992698 250.30468536 171.18219882 250.30902343 169.72447205 250.31376648 C166.70356513 250.3211395 163.68277533 250.32099994 160.66186523 250.31567383 C156.81350342 250.30983894 152.96561665 250.32694941 149.11733341 250.3500185 C146.12055215 250.3648112 143.1238846 250.36562094 140.12707329 250.36250877 C138.70825688 250.3630175 137.28943334 250.36816958 135.87065315 250.37832069 C120.31864726 250.47613096 120.31864726 250.47613096 114 247 C110.54034126 242.49516711 110.56698867 238.01443241 110.6875 232.5625 C110.68427734 231.83740234 110.68105469 231.11230469 110.67773438 230.36523438 C110.7305719 225.01903785 110.92655157 219.14494665 114.8125 215.125 C119.21338873 212.8616858 123.62553022 212.88760592 128.49609375 212.9375 C129.76670654 212.94604004 131.03731934 212.95458008 132.34643555 212.96337891 C133.0142807 212.96960266 133.68212585 212.97582642 134.37020874 212.98223877 C162.54080303 213.96093584 162.54080303 213.96093584 190 209 C190.63292969 208.91621094 191.26585937 208.83242187 191.91796875 208.74609375 C203.59882374 207.15781915 215.10014218 200.53741045 224 193 C224.969375 192.29875 225.93875 191.5975 226.9375 190.875 C242.22132206 177.6677842 247.93153043 157.24907623 249.4296875 137.85546875 C251.08133586 112.51334812 248.73995378 87.25290029 232 67 C231.35546875 66.21753906 230.7109375 65.43507813 230.046875 64.62890625 C218.66280017 52.09338873 202.0459422 45.37924451 185.34751892 44.51245117 C184.50451736 44.47740479 183.66151581 44.4423584 182.79296875 44.40625 C181.86372086 44.36604736 180.93447296 44.32584473 179.97706604 44.28442383 C164.4751604 43.70548152 148.94695442 43.9338616 133.4375 44 C127.8029572 44.02385556 122.16844307 44.04411354 116.53386116 44.05593872 C114.31789697 44.06229407 112.10202753 44.07478243 109.88609314 44.08764648 C108.50275752 44.09128496 107.1194211 44.09463593 105.73608398 44.09765625 C104.55223618 44.10289307 103.36838837 44.10812988 102.14866638 44.11352539 C96.41888809 44.0392463 90.70726342 43.47782872 85 43 C85.05892259 76.57224796 85.13350299 110.14441977 85.22898628 143.716583 C85.240254 147.68304395 85.25139253 151.64950526 85.26245117 155.6159668 C85.26465486 156.4055943 85.26685854 157.1952218 85.269129 158.0087774 C85.30446969 170.7824255 85.32935203 183.55607355 85.35034702 196.32975236 C85.37213482 209.44363842 85.40521347 222.55746122 85.44870156 235.67129344 C85.47516703 243.75861173 85.49289995 251.84585126 85.49934604 259.93321069 C85.50523989 266.14201938 85.52686787 272.3506841 85.55427551 278.55943298 C85.56305392 281.10102788 85.56677873 283.64264616 85.56500816 286.1842556 C85.56335072 289.66196789 85.58009585 293.13913779 85.60127258 296.61677551 C85.59642501 297.61583556 85.59157743 298.6148956 85.58658296 299.64423019 C85.68468631 309.44779384 87.24909029 317.87993004 93.890625 325.34375 C100.67583933 330.67139977 108.07988251 330.66189885 116.34960938 331.171875 C122.46799512 331.6293244 127.1807104 332.39939744 131.86328125 336.71875 C132.34152344 337.3065625 132.81976563 337.894375 133.3125 338.5 C133.80363281 339.0878125 134.29476562 339.675625 134.80078125 340.28125 C138.01311776 344.88525021 137.53138026 350.63999041 137 356 C134.57688983 361.35103495 130.13500237 365.21434512 125 368 C119.06875835 369.86338263 113.63211394 370.35407459 107.4375 370.3125 C106.56343506 370.30758545 105.68937012 370.3026709 104.78881836 370.29760742 C87.4441319 369.98853186 70.58323288 365.08685494 57 354 C57 353.34 57 352.68 57 352 C56.43152344 351.79246094 55.86304688 351.58492188 55.27734375 351.37109375 C46.67076067 346.18942881 40.59820709 331.86233106 38.0703125 322.58984375 C35.58835153 311.72830978 34.84643185 300.99708961 34.87974548 289.88252258 C34.87889106 288.8195674 34.87803663 287.75661222 34.87715632 286.66144627 C34.87552044 283.13015555 34.88099167 279.59891324 34.88647461 276.06762695 C34.88675692 273.52416485 34.8865979 270.98070266 34.8860321 268.4372406 C34.88580502 262.97696132 34.88862563 257.5166974 34.89426994 252.05642128 C34.90242514 244.1619514 34.90500427 236.26748728 34.90625793 228.37301364 C34.90844215 215.56223041 34.91508512 202.75145358 34.92456055 189.94067383 C34.93375099 177.50219759 34.94082383 165.06372309 34.94506836 152.62524414 C34.94533108 151.85748924 34.94559381 151.08973434 34.94586449 150.29871414 C34.94716961 146.44680074 34.9484333 142.59488734 34.94967639 138.74297392 C34.96002939 106.82864459 34.97770528 74.91432329 35 43 C34.06542969 43.08378906 33.13085938 43.16757812 32.16796875 43.25390625 C21.11040216 44.11116607 11.30315917 43.59490311 0 43 C0 28.81 0 14.62 0 0 Z M251 43 C251 43.66 251 44.32 251 45 C251.66 44.67 252.32 44.34 253 44 C252.34 43.67 251.68 43.34 251 43 Z " fill="#006c67" transform="translate(0,3)"/>
<path d="M0 0 C1.17717339 0.00303635 1.17717339 0.00303635 2.37812805 0.00613403 C3.20113403 0.00438171 4.02414001 0.00262939 4.87208557 0.00082397 C7.61427375 -0.0036031 10.35639811 -0.00064956 13.09858704 0.00271606 C15.00938937 0.0020423 16.92019161 0.00107167 18.83099365 -0.00018311 C22.85371204 -0.001662 26.87640832 0.00049706 30.89912415 0.00515747 C36.01267334 0.01079734 41.12616938 0.00761395 46.23971653 0.00158501 C50.19756454 -0.00206499 54.15540041 -0.00086088 58.11324883 0.0017128 C59.99517257 0.00237288 61.87709747 0.00158634 63.75901985 -0.00076675 C75.06116083 -0.01177684 86.26028603 0.2666447 97.53218079 1.13552856 C97.53218079 1.46552856 97.53218079 1.79552856 97.53218079 2.13552856 C86.20035777 2.91238624 74.93604112 3.28616671 63.57905579 3.26834106 C62.02023809 3.26901788 60.46142049 3.26999101 58.90260315 3.27124023 C55.66909255 3.27269775 52.43560995 3.2706252 49.20210266 3.26589966 C45.09537419 3.26018425 40.98871085 3.26350531 36.88198471 3.26947212 C33.67489648 3.27311448 30.46782328 3.27192273 27.26073456 3.26934433 C25.7475458 3.26868618 24.23435558 3.26946364 22.72116852 3.27182388 C20.59661319 3.27441403 18.47215846 3.27042342 16.34761047 3.2649231 C14.54921722 3.26372971 14.54921722 3.26372971 12.7144928 3.26251221 C6.97362685 3.16521512 1.25137133 2.61239175 -4.46781921 2.13552856 C-4.40889663 35.70777652 -4.33431622 69.27994833 -4.23883293 102.85211157 C-4.22756521 106.81857252 -4.21642669 110.78503382 -4.20536804 114.75149536 C-4.20316436 115.54112286 -4.20096068 116.33075036 -4.19869021 117.14430597 C-4.16334952 129.91795407 -4.13846718 142.69160211 -4.11747219 155.46528093 C-4.0956844 168.57916698 -4.06260575 181.69298978 -4.01911765 194.806822 C-3.99265218 202.8941403 -3.97491926 210.98137982 -3.96847317 219.06873926 C-3.96257932 225.27754795 -3.94095134 231.48621266 -3.9135437 237.69496155 C-3.90476529 240.23655644 -3.90104048 242.77817472 -3.90281105 245.31978416 C-3.9044685 248.79749645 -3.88772337 252.27466636 -3.86654663 255.75230408 C-3.87139421 256.75136412 -3.87624178 257.75042416 -3.88123626 258.77975875 C-3.7831329 268.5833224 -2.21872892 277.01545861 4.42280579 284.47927856 C11.20802011 289.80692833 18.6120633 289.79742742 26.88179016 290.30740356 C33.00017591 290.76485297 37.71289119 291.534926 42.39546204 295.85427856 C42.87370422 296.44209106 43.35194641 297.02990356 43.84468079 297.63552856 C44.3358136 298.22334106 44.82694641 298.81115356 45.33296204 299.41677856 C48.54529855 304.02077878 48.06356105 309.77551898 47.53218079 315.13552856 C45.10907062 320.48656351 40.66718315 324.34987369 35.53218079 327.13552856 C29.60047821 328.999056 24.16461012 329.48842372 17.96968079 329.44802856 C17.09996643 329.44456421 16.23025208 329.44109985 15.33418274 329.43753052 C4.82889672 329.26310095 -4.86567461 327.48022517 -14.46781921 323.13552856 C-10.60744057 321.84873568 -9.2912931 322.75870942 -5.46781921 324.07302856 C2.06472994 326.33482053 9.51524701 326.62200948 17.34468079 326.69802856 C18.48872375 326.72437378 19.63276672 326.75071899 20.81147766 326.77786255 C29.75468094 326.74217797 36.48761917 324.89380344 43.12593079 318.72537231 C45.79893699 313.80258589 45.20117917 308.56260732 44.53218079 303.13552856 C42.257807 298.06192551 39.64848063 296.16073059 34.53218079 294.13552856 C31.35302859 293.10248598 28.27457748 293.00147611 24.94746399 292.89602661 C15.51180803 292.56846814 7.49195786 291.09530564 0.53218079 284.13552856 C-5.41845957 275.38458687 -6.91884765 266.26391531 -6.83531189 255.84132385 C-6.83858073 254.74726024 -6.84184957 253.65319663 -6.84521747 252.52597958 C-6.8524636 248.88323421 -6.83837417 245.24089547 -6.82426453 241.59817505 C-6.82505585 238.97766552 -6.82715448 236.35715612 -6.83045959 233.73664856 C-6.83607386 227.374186 -6.82581663 221.01184465 -6.81017163 214.64940273 C-6.79259314 207.24085642 -6.79121161 199.83233327 -6.79055604 192.42376936 C-6.78887068 179.21202169 -6.77308423 166.00032911 -6.74906921 152.78860474 C-6.72577132 139.96210268 -6.71163824 127.13563558 -6.70805359 114.30911255 C-6.70771944 113.12209027 -6.70771944 113.12209027 -6.70737854 111.91108774 C-6.70693594 110.31694116 -6.70649392 108.72279457 -6.70605247 107.12864799 C-6.7058329 106.34231414 -6.70561334 105.55598029 -6.70538712 104.74581814 C-6.70517113 103.96149342 -6.70495514 103.17716871 -6.70473261 102.36907658 C-6.70103669 90.14696692 -6.68968061 77.9248629 -6.67725672 65.70275943 C-6.67281725 61.26984884 -6.66938079 56.8369388 -6.66663459 52.40402686 C-6.66179864 44.72549775 -6.65171369 37.04700079 -6.63580704 29.3684864 C-6.6312689 26.81299713 -6.62844182 24.2575042 -6.62739944 21.70201111 C-6.62566485 18.23027325 -6.61781175 14.75860433 -6.60826111 11.28688049 C-6.60912759 10.26162229 -6.60999407 9.23636408 -6.61088681 8.18003744 C-6.60704567 7.25763016 -6.60320452 6.33522287 -6.59924698 5.38486385 C-6.59737723 4.18149723 -6.59737723 4.18149723 -6.59546971 2.95382017 C-6.31471878 -1.0452795 -3.31594142 0.01316428 0 0 Z " fill="#006c67" transform="translate(89.46781921386719,43.864471435546875)"/>
<path d="M0 0 C98.01 0 196.02 0 297 0 C297 0.99 297 1.98 297 3 C198.99 3 100.98 3 0 3 C0 2.01 0 1.02 0 0 Z " fill="#006c67" transform="translate(0,3)"/>
<path d="M0 0 C12.21 0 24.42 0 37 0 C37.00586624 3.29915909 37.01173248 6.59831818 37.01777649 9.99745178 C37.07302766 40.29651585 37.14302975 70.59551174 37.22898628 100.89450395 C37.24025357 104.8708311 37.25139217 108.8471586 37.26245117 112.82348633 C37.26465486 113.6150552 37.26685854 114.40662407 37.269129 115.22217988 C37.30443916 128.01575861 37.32933868 140.80933729 37.35034702 153.60294659 C37.37215924 166.74397203 37.40526081 179.8849346 37.44870156 193.0259065 C37.47512519 201.12549686 37.49288882 209.22500898 37.49934604 217.32464027 C37.50525566 223.55002777 37.52692136 229.77527271 37.55427551 236.00060081 C37.56302997 238.54374075 37.56678373 241.0869039 37.56500816 243.63005829 C37.55485256 264.89815867 38.92690098 283.71787862 51 302 C51 302.66 51 303.32 51 304 C51.66 304.33 52.32 304.66 53 305 C52.01 305 51.02 305 50 305 C36.79167497 289.38162514 34.82111199 268.44465905 34.87974548 248.88252258 C34.87889106 247.8195674 34.87803663 246.75661222 34.87715632 245.66144627 C34.87552044 242.13015555 34.88099167 238.59891324 34.88647461 235.06762695 C34.88675692 232.52416485 34.8865979 229.98070266 34.8860321 227.4372406 C34.88580502 221.97696132 34.88862563 216.5166974 34.89426994 211.05642128 C34.90242514 203.1619514 34.90500427 195.26748728 34.90625793 187.37301364 C34.90844215 174.56223041 34.91508512 161.75145358 34.92456055 148.94067383 C34.93375099 136.50219759 34.94082383 124.06372309 34.94506836 111.62524414 C34.94533108 110.85748924 34.94559381 110.08973434 34.94586449 109.29871414 C34.94716961 105.44680074 34.9484333 101.59488734 34.94967639 97.74297392 C34.96002939 65.82864459 34.97770528 33.91432329 35 2 C33.91134644 2.07359238 32.82269287 2.14718475 31.7010498 2.2230072 C30.25318226 2.3179896 28.80530581 2.41283612 27.35742188 2.50756836 C26.64221375 2.55627831 25.92700562 2.60498825 25.19012451 2.65517426 C19.58787713 3.01759595 14.10117207 2.96926291 8.5 2.5625 C7.66597656 2.51029297 6.83195313 2.45808594 5.97265625 2.40429688 C3.98119036 2.27839961 1.99047965 2.14063171 0 2 C0 1.34 0 0.68 0 0 Z " fill="#006c67" transform="translate(0,44)"/>
<path d="M0 0 C1.17717339 0.00303635 1.17717339 0.00303635 2.37812805 0.00613403 C3.20113403 0.00438171 4.02414001 0.00262939 4.87208557 0.00082397 C7.61427375 -0.0036031 10.35639811 -0.00064956 13.09858704 0.00271606 C15.00938937 0.0020423 16.92019161 0.00107167 18.83099365 -0.00018311 C22.85371204 -0.001662 26.87640832 0.00049706 30.89912415 0.00515747 C36.01267334 0.01079734 41.12616938 0.00761395 46.23971653 0.00158501 C50.19756454 -0.00206499 54.15540041 -0.00086088 58.11324883 0.0017128 C59.99517257 0.00237288 61.87709747 0.00158634 63.75901985 -0.00076675 C75.06116083 -0.01177684 86.26028603 0.2666447 97.53218079 1.13552856 C97.53218079 1.46552856 97.53218079 1.79552856 97.53218079 2.13552856 C86.2120833 2.91127536 74.95943359 3.28618516 63.61421204 3.26834106 C62.05778997 3.26901795 60.501368 3.26999113 58.94494629 3.27124023 C55.71563185 3.27269787 52.48634543 3.2706251 49.2570343 3.26589966 C45.15937233 3.26018906 41.06177571 3.26350224 36.9641161 3.26947212 C33.76127649 3.27311824 30.55845191 3.27192097 27.3556118 3.26934433 C25.84604064 3.26868697 24.33646803 3.26946074 22.82689857 3.27182388 C20.70494184 3.2744199 18.5830853 3.27041551 16.46113586 3.2649231 C15.26442764 3.2641275 14.06771942 3.26333191 12.83474731 3.26251221 C6.7249974 3.08219232 0.62905759 2.57101976 -5.46781921 2.13552856 C-5.46781921 87.60552856 -5.46781921 173.07552856 -5.46781921 261.13552856 C-5.79781921 261.13552856 -6.12781921 261.13552856 -6.46781921 261.13552856 C-6.49068469 228.03008827 -6.50831698 194.92465001 -6.51888454 161.81920362 C-6.52013532 157.91496101 -6.52142964 154.01071842 -6.52275085 150.10647583 C-6.52301316 149.3291783 -6.52327548 148.55188077 -6.52354573 147.75102877 C-6.5279026 135.14844186 -6.53579024 122.54585949 -6.54497201 109.94327528 C-6.55430808 97.02157894 -6.55987472 84.09988498 -6.56190771 71.1781854 C-6.56328303 63.19832815 -6.56763413 55.21848372 -6.57573568 47.23863041 C-6.58162323 41.13008813 -6.5822783 35.021557 -6.5809269 28.91301155 C-6.58120343 26.39945395 -6.58321123 23.88589588 -6.58702469 21.37234116 C-6.59195483 17.95700527 -6.59082002 14.54172557 -6.58807373 11.12638855 C-6.59098657 10.11765483 -6.59389941 9.10892112 -6.59690052 8.06961972 C-6.59490947 7.16194582 -6.59291843 6.25427192 -6.59086704 5.31909275 C-6.59143662 4.1349349 -6.59143662 4.1349349 -6.59201771 2.92685467 C-6.31636537 -1.04890389 -3.28398889 0.01303743 0 0 Z " fill="#006c67" transform="translate(89.46781921386719,43.864471435546875)"/>
<path d="M0 0 C16.01942114 4.68404127 28.67839162 20.05781325 37 34 C46.27709837 51.03025576 49.17772678 69.108131 49.1875 88.3125 C49.19974609 89.56740234 49.21199219 90.82230469 49.22460938 92.11523438 C49.23636848 99.63714148 48.67343286 106.66059844 47 114 C46.67 114 46.34 114 46 114 C46.02094727 112.75613525 46.04189453 111.51227051 46.06347656 110.23071289 C46.13691172 105.53226641 46.18216874 100.83386842 46.21972656 96.13500977 C46.23960983 94.11701882 46.26672625 92.09908365 46.30175781 90.08129883 C46.76594337 62.61926222 40.21685952 37.56089582 21 17 C14.56137811 10.85607513 7.67591889 5.51524641 0 1 C0 0.67 0 0.34 0 0 Z " fill="#006c67" transform="translate(248,47)"/>
<path d="M0 0 C11.06705527 -0.02330741 22.13410457 -0.04100796 33.2011795 -0.05181217 C38.3416481 -0.05700112 43.48209975 -0.06402512 48.62255859 -0.07543945 C53.59575056 -0.08641158 58.56892636 -0.09230676 63.54212952 -0.09487724 C65.42684686 -0.09670595 67.31156346 -0.10027606 69.1962738 -0.10573006 C80.51071283 -0.13712986 91.71593814 0.12476696 103 1 C103 1.33 103 1.66 103 2 C88.95238455 3.11557583 74.93172914 3.15388839 60.84667969 3.13037109 C56.95243576 3.12493359 53.05830327 3.13038586 49.1640625 3.13671875 C46.69270808 3.13605926 44.22135373 3.1347808 41.75 3.1328125 C40.58355957 3.13483673 39.41711914 3.13686096 38.21533203 3.13894653 C36.6160083 3.13421829 36.6160083 3.13421829 34.984375 3.12939453 C34.04303711 3.12859894 33.10169922 3.12780334 32.13183594 3.12698364 C30 3 30 3 29 2 C26.85613343 1.84141158 24.70733162 1.74870702 22.55859375 1.68359375 C21.25341797 1.64169922 19.94824219 1.59980469 18.60351562 1.55664062 C17.2148467 1.51682392 15.82617478 1.47711175 14.4375 1.4375 C13.04490817 1.39432011 11.65232972 1.350706 10.25976562 1.30664062 C6.83995199 1.20014124 3.42006237 1.09813077 0 1 C0 0.67 0 0.34 0 0 Z " fill="#006c67" transform="translate(84,44)"/>
<path d="M0 0 C0.99 0.495 0.99 0.495 2 1 C2.44329939 2.78370227 2.87590164 4.57107076 3.24145508 6.37231445 C4.77160914 13.88573103 6.43812796 20.31647928 13 25 C19.59985511 28.51824337 25.99017817 28.71803481 33.34960938 29.171875 C38.57438434 29.56251238 42.42224357 30.19698109 47 33 C44 34 44 34 40.8046875 33.0859375 C36.84071169 31.95453578 33.20447624 31.72083157 29.125 31.625 C20.45218902 31.24688021 13.27834922 29.27834922 7 23 C2.40041025 16.23589742 -0.65388843 8.28258673 0 0 Z " fill="#006c67" transform="translate(83,305)"/>
<path d="M0 0 C0.66 0 1.32 0 2 0 C0.59128634 4.83411214 -1.51815935 8.97334991 -4.125 13.25 C-4.52388428 13.90677734 -4.92276855 14.56355469 -5.33374023 15.24023438 C-10.77208166 24.03808995 -16.87239044 31.5673791 -25 38 C-26.01191406 38.81339844 -27.02382813 39.62679687 -28.06640625 40.46484375 C-29.14686953 41.31189968 -30.22889807 42.15696292 -31.3125 43 C-32.31925781 43.78375 -33.32601562 44.5675 -34.36328125 45.375 C-35.23339844 45.91125 -36.10351562 46.4475 -37 47 C-37.99 46.67 -38.98 46.34 -40 46 C-39.10539063 45.39414063 -38.21078125 44.78828125 -37.2890625 44.1640625 C-20.47161254 32.59447866 -8.39050504 18.62282827 0 0 Z " fill="#006c67" transform="translate(285,188)"/>
<path d="M0 0 C2.73500692 2.73500692 2.70575069 5.50267816 3.125 9.1875 C3.2502002 10.25955688 3.2502002 10.25955688 3.37792969 11.35327148 C4.72078543 23.7966113 3.95528964 35.69215001 2 48 C1.67 48 1.34 48 1 48 C1.00523682 47.18547363 1.01047363 46.37094727 1.01586914 45.53173828 C1.10060404 30.32450592 1.15148505 15.174928 0 0 Z " fill="#006c67" transform="translate(249,102)"/>
<path d="M0 0 C4.00695297 1.36649195 6.6767174 3.17103527 9.8125 6 C10.60269531 6.70125 11.39289063 7.4025 12.20703125 8.125 C14 10 14 10 14 12 C14.66 12 15.32 12 16 12 C21.41919648 18.31308456 26.15782168 26.18400963 29 34 C28.56054688 36.16650391 28.56054688 36.16650391 28 38 C27.25556641 36.42412109 27.25556641 36.42412109 26.49609375 34.81640625 C20.28894698 21.89716625 12.89018799 9.25073075 0 2 C0 1.34 0 0.68 0 0 Z " fill="#006c67" transform="translate(218,56)"/>
<path d="M0 0 C0.66 0 1.32 0 2 0 C-0.06231965 8.38676659 -4.25769064 13.65273163 -10 20 C-10.62648437 20.69738281 -11.25296875 21.39476562 -11.8984375 22.11328125 C-15.57531923 25.9981314 -19.2367999 28.56979587 -24 31 C-22.73763259 27.21289776 -21.17643054 26.43158778 -18 24.0625 C-10.02318841 17.69559179 -3.33140198 9.77211246 0 0 Z " fill="#006c67" transform="translate(242,172)"/>
<path d="M0 0 C0.33 0 0.66 0 1 0 C1.33 7.59 1.66 15.18 2 23 C2.66 23 3.32 23 4 23 C4 23.66 4 24.32 4 25 C8.455 25.99 8.455 25.99 13 27 C13 27.33 13 27.66 13 28 C8.04775141 28.29130874 4.89811061 28.22986308 1 25 C-1.41938263 20.53926328 -1.26749146 16.30920978 -1.1875 11.375 C-1.18685547 10.611875 -1.18621094 9.84875 -1.18554688 9.0625 C-1.15975172 5.79511421 -1.03955395 3.11866185 0 0 Z " fill="#006c67" transform="translate(112,224)"/>
<path d="M0 0 C1.16660156 0.00322266 2.33320313 0.00644531 3.53515625 0.00976562 C4.75847656 0.01814453 5.98179687 0.02652344 7.2421875 0.03515625 C8.47324219 0.03966797 9.70429688 0.04417969 10.97265625 0.04882812 C14.02088142 0.06064295 17.06901064 0.07711597 20.1171875 0.09765625 C20.1171875 0.75765625 20.1171875 1.41765625 20.1171875 2.09765625 C14.66645509 3.00854068 9.38932953 3.2806299 3.8671875 3.28515625 C3.06539063 3.29740234 2.26359375 3.30964844 1.4375 3.32226562 C-4.52347004 3.33721789 -4.52347004 3.33721789 -7.8828125 1.09765625 C-5.16879956 -0.25935022 -3.03434934 -0.01472985 0 0 Z " fill="#006c67" transform="translate(276.8828125,43.90234375)"/>
<path d="M0 0 C0.33 0 0.66 0 1 0 C1.27966754 5.60807013 0.36706256 10.06073051 -1.375 15.375 C-1.59671875 16.09816406 -1.8184375 16.82132813 -2.046875 17.56640625 C-2.63171499 19.40005162 -3.30908947 21.20363262 -4 23 C-4.66 23.33 -5.32 23.66 -6 24 C-4.29830289 15.91693875 -2.16286319 7.96899594 0 0 Z " fill="#006c67" transform="translate(293,162)"/>
<path d="M0 0 C9.04028922 -0.1723784 17.98865693 0.3668316 27 1 C27 1.33 27 1.66 27 2 C24.33349537 2.16968666 21.66684474 2.33581821 19 2.5 C18.25621094 2.54769531 17.51242188 2.59539063 16.74609375 2.64453125 C14.49795146 2.78137469 12.24980943 2.89435677 10 3 C9.24847656 3.04511719 8.49695313 3.09023438 7.72265625 3.13671875 C5.5625 3.21875 5.5625 3.21875 2 3 C1.34 2.01 0.68 1.02 0 0 Z " fill="#006c67" transform="translate(160,44)"/>
<path d="M0 0 C0.33 0 0.66 0 1 0 C1.6155267 6.77079371 -0.31994565 12.79870635 -3 19 C-3.66 19.33 -4.32 19.66 -5 20 C-4.35346673 13.04976736 -2.13972752 6.61822697 0 0 Z " fill="#006c67" transform="translate(249,151)"/>
<path d="M0 0 C4.77609498 1.64178265 8.79382904 4.26546702 13 7 C11.296875 7.67578125 11.296875 7.67578125 9 8 C6.640625 6.85546875 6.640625 6.85546875 4.25 5.1875 C3.45078125 4.64480469 2.6515625 4.10210937 1.828125 3.54296875 C1.22484375 3.03378906 0.6215625 2.52460938 0 2 C0 1.34 0 0.68 0 0 Z " fill="#006c67" transform="translate(60,357)"/>
<path d="M0 0 C2 1 2 1 2 1 Z " fill="#006c67" transform="translate(76,369)"/>
<path d="" fill="#006c67" transform="translate(0,0)"/>
<path d="M0 0 C2 1 2 1 2 1 Z " fill="#006c67" transform="translate(208,251)"/>
<path d="" fill="#006c67" transform="translate(0,0)"/>
<path d="" fill="#006c67" transform="translate(0,0)"/>
<path d="" fill="#006c67" transform="translate(0,0)"/>
<path d="" fill="#006c67" transform="translate(0,0)"/>
<path d="" fill="#006c67" transform="translate(0,0)"/>
<path d="" fill="#006c67" transform="translate(0,0)"/>
<path d="" fill="#006c67" transform="translate(0,0)"/>
<path d="" fill="#006c67" transform="translate(0,0)"/>
<path d="" fill="#006c67" transform="translate(0,0)"/>
<path d="" fill="#006c67" transform="translate(0,0)"/>
<path d="" fill="#006c67" transform="translate(0,0)"/>
<path d="" fill="#006c67" transform="translate(0,0)"/>
<path d="" fill="#006c67" transform="translate(0,0)"/>
<path d="" fill="#006c67" transform="translate(0,0)"/>
<path d="" fill="#006c67" transform="translate(0,0)"/>
<path d="" fill="#006c67" transform="translate(0,0)"/>
<path d="" fill="#006c67" transform="translate(0,0)"/>
<path d="" fill="#006c67" transform="translate(0,0)"/>
<path d="" fill="#006c67" transform="translate(0,0)"/>
<path d="" fill="#006c67" transform="translate(0,0)"/>
<path d="" fill="#006c67" transform="translate(0,0)"/>
<path d="" fill="#006c67" transform="translate(0,0)"/>
<path d="" fill="#006c67" transform="translate(0,0)"/>
<path d="" fill="#006c67" transform="translate(0,0)"/>
<path d="" fill="#006c67" transform="translate(0,0)"/>
<path d="" fill="#006c67" transform="translate(0,0)"/>
<path d="" fill="#006c67" transform="translate(0,0)"/>
<path d="" fill="#006c67" transform="translate(0,0)"/>
<path d="" fill="#006c67" transform="translate(0,0)"/>
<path d="" fill="#006c67" transform="translate(0,0)"/>
<path d="" fill="#006c67" transform="translate(0,0)"/>
<path d="" fill="#006c67" transform="translate(0,0)"/>
<path d="" fill="#006c67" transform="translate(0,0)"/>
<path d="" fill="#006c67" transform="translate(0,0)"/>
<path d="" fill="#006c67" transform="translate(0,0)"/>
<path d="" fill="#006c67" transform="translate(0,0)"/>
<path d="" fill="#006c67" transform="translate(0,0)"/>
<path d="" fill="#006c67" transform="translate(0,0)"/>
<path d="" fill="#006c67" transform="translate(0,0)"/>
<path d="" fill="#006c67" transform="translate(0,0)"/>
<path d="" fill="#006c67" transform="translate(0,0)"/>
<path d="" fill="#006c67" transform="translate(0,0)"/>
<path d="" fill="#006c67" transform="translate(0,0)"/>
<path d="" fill="#006c67" transform="translate(0,0)"/>
<path d="" fill="#006c67" transform="translate(0,0)"/>
<path d="" fill="#006c67" transform="translate(0,0)"/>
<path d="" fill="#006c67" transform="translate(0,0)"/>
<path d="" fill="#006c67" transform="translate(0,0)"/>
<path d="" fill="#006c67" transform="translate(0,0)"/>
</svg>


